<svg width="234" height="233" viewBox="0 0 234 233" fill="none" xmlns="http://www.w3.org/2000/svg">
<path fill-rule="evenodd" clip-rule="evenodd" d="M5.67652 1.4277C2.57752 3.7137 2.02452 8.34869 4.14252 14.2797C7.85252 24.6687 10.0415 33.8207 13.0875 51.6777C21.1075 98.6857 30.7165 123.087 47.7595 139.727C58.0525 149.776 71.4875 155.436 88.9465 157.079C106.361 158.717 119.365 156.985 151.49 148.748C175.158 142.679 180.87 141.822 193.596 142.429C202.338 142.846 206.832 143.674 216.345 146.62C227.848 150.182 232.975 150.78 233.675 148.641C233.862 148.07 230.854 146.094 226.99 144.248C222.561 142.133 218.768 139.447 216.727 136.981C207.631 125.987 207.93 126.178 199.84 126.181C192.107 126.183 180.612 128.824 164.943 134.197C135.139 144.419 122.493 147.26 103.99 147.894C90.9165 148.342 88.8495 148.175 82.9895 146.196C79.4145 144.99 73.9985 142.492 70.9535 140.647C64.4665 136.717 54.4505 126.584 50.7205 120.178C43.5665 107.895 37.1945 84.7787 31.0185 48.7077C29.4155 39.3417 27.7965 30.2147 27.4215 28.4277C26.4855 23.9697 28.0425 24.2977 32.1605 29.4277C39.6805 38.7967 41.8715 42.2907 64.2935 80.6777C84.8655 115.898 100.7 132.302 119.83 138.21C140.665 144.645 150.897 135.686 160.48 102.617C162.867 94.3777 167.102 74.0847 168.502 64.1777C170.328 51.2497 175.543 24.6987 177.62 17.7517C182.01 3.07069 180.461 -0.362303 169.78 0.371697C153.123 1.5177 139.236 14.9137 125.927 42.6777C117.176 60.9307 115.821 63.4897 112.363 68.2767C108.933 73.0257 102.311 79.4967 98.0645 82.2497C95.1695 84.1267 95.7305 86.6467 99.4155 88.3257C105.652 91.1667 121.836 78.2557 132.192 62.1777C135.203 57.5027 140.616 47.6027 144.22 40.1777C150.35 27.5507 156.984 17.1777 158.93 17.1777C159.397 17.1777 159.364 18.8657 158.856 20.9277C156.692 29.7137 152.889 49.9987 150.08 67.7357C145.619 95.9017 141.592 111.516 135.434 124.521C132.994 129.675 132.469 130.178 129.528 130.178C125.504 130.178 116.314 124.367 109.632 117.599C103.539 111.426 94.0165 97.6927 86.8065 84.6777C61.7025 39.3647 54.7405 28.3967 44.2745 17.6777C31.5895 4.6857 12.2815 -3.4433 5.67652 1.4277ZM89.4895 22.8957C85.9405 23.7577 80.8175 28.3447 79.2715 32.0447C77.2555 36.8697 78.0955 43.1687 82.0085 52.5697C85.2785 60.4247 90.7385 68.4837 93.5115 69.5477C95.9745 70.4927 98.5665 68.6527 102.95 62.8467C107.668 56.5977 111.99 45.7337 111.99 40.1227C111.99 28.1137 101.396 20.0027 89.4895 22.8957Z" fill="black"/>
<path d="M43.9486 187.678C41.5146 187.678 41.4866 187.572 41.2046 177.428L40.9196 167.178H43.8916C46.5126 167.178 46.8996 167.561 47.1766 170.428L47.4896 173.678L49.4556 170.428C51.0456 167.798 52.0606 167.178 54.7736 167.178H58.1256L56.0576 170.082C53.4306 173.771 53.4876 174.527 56.8886 181.095L59.6926 186.513L61.7766 179.595C62.9226 175.791 64.1626 171.44 64.5336 169.928C65.1376 167.459 65.6456 167.178 69.5006 167.178H73.7946L75.9946 174.419C77.2036 178.401 78.4376 183.163 78.7356 184.999C79.2526 188.186 79.1466 188.324 76.4186 188.008C73.4726 187.668 72.7086 186.333 70.2216 177.178C69.1706 173.309 68.9906 173.563 66.5506 182.357L64.9756 188.035H59.4246C54.2606 188.035 53.7386 187.814 51.9356 184.857C50.8696 183.108 49.8326 181.228 49.6306 180.678C49.0336 179.053 47.8076 180.834 47.0826 184.377C46.5396 187.034 45.9276 187.678 43.9486 187.678Z" fill="black"/>
<path d="M82.8606 183.178C86.2576 183.178 86.1926 181.532 82.5106 174.219L78.9646 167.178H82.3556C85.1806 167.178 85.9546 167.679 86.9896 170.178C87.6726 171.828 88.5286 173.178 88.8916 173.178C89.2546 173.178 90.0606 171.828 90.6836 170.178C91.5396 167.91 92.4466 167.178 94.4026 167.178C95.8256 167.178 96.9896 167.426 96.9896 167.729C96.9896 169.018 90.7526 183.838 89.5006 185.523C88.7076 186.591 86.7326 187.433 84.8096 187.523C82.0706 187.651 81.4336 187.284 81.1696 185.428C80.9296 183.735 81.3476 183.178 82.8606 183.178Z" fill="black"/>
<path d="M143.334 231.026C133.214 226.22 136.219 206.366 147.964 200.428C155.782 196.475 161.99 198.059 160.586 203.65C159.754 206.967 155.619 208.057 152.968 205.659C150.302 203.246 148.492 204.919 146.989 211.183C144.698 220.734 147.706 225.583 155.57 225.018C161.442 224.596 162.411 226.343 157.846 229.119C153.329 231.866 146.885 232.713 143.334 231.026Z" fill="black"/>
<path d="M164.212 217.41C163.939 203.38 163.976 203.101 166.417 200.66C169.886 197.191 172.882 197.387 173.631 201.132L174.222 204.086L177.987 201.06C180.843 198.765 182.567 198.111 185.122 198.356C187.957 198.627 188.54 199.114 188.806 201.428C188.98 202.94 189.288 204.178 189.49 204.178C189.692 204.178 192.095 202.787 194.83 201.087C203.985 195.396 206.026 198.109 205.804 215.674C205.656 227.425 205.595 227.727 202.817 230.505C198.215 235.107 197.546 233.913 196.99 220.097C196.59 210.17 196.2 207.678 195.046 207.678C192.386 207.678 189.736 213.978 189.227 221.509C188.698 229.345 187.134 232.178 183.335 232.178C180.52 232.178 180.567 232.396 180.524 218.95C180.504 212.636 180.079 208.134 179.49 208.007C178.94 207.889 177.189 209.729 175.598 212.097C173.324 215.485 172.602 217.869 172.215 223.279C171.689 230.634 170.51 232.531 166.795 232.005C164.526 231.683 164.486 231.452 164.212 217.41Z" fill="black"/>
<path d="M31.7156 212.59C35.0476 206.479 37.6476 203.19 40.9626 200.892C43.6606 199.021 48.5146 198.601 49.4746 200.154C49.8066 200.691 50.2986 203.504 50.5676 206.404C50.8366 209.305 51.8046 215.226 52.7176 219.562L54.3776 227.445L52.0726 229.312C46.6866 233.673 44.6806 231.195 43.0166 218.126C41.4206 205.595 41.3586 205.439 39.1006 208.311C36.2396 211.948 33.7716 220.2 34.4546 223.843C34.9236 226.346 34.5726 227.489 32.8336 229.109C30.2536 231.513 27.1696 231.81 26.3716 229.731C25.5926 227.702 28.4196 218.636 31.7156 212.59Z" fill="black"/>
<path d="M87.9896 217.893C87.9896 206.319 89.1886 201.456 92.3646 200.142C93.5336 199.659 97.6396 199.357 101.49 199.471C106.901 199.631 108.49 200.013 108.49 201.154C108.49 201.966 107.14 203.023 105.49 203.502C97.3806 205.861 97.5186 205.624 97.2036 217.675C96.9026 229.169 95.7966 232.178 91.8696 232.178C88.8906 232.178 87.9896 228.861 87.9896 217.893Z" fill="black"/>
<path fill-rule="evenodd" clip-rule="evenodd" d="M118.674 198.627C111.771 201.089 108.727 205.195 107.638 213.514C106.761 220.214 108.571 226.647 112.189 229.692C116.031 232.925 118.574 232.827 124.248 229.23C134.207 222.913 137.191 207.532 129.875 200.217C126.539 196.88 124.415 196.579 118.674 198.627ZM115.969 217.575C114.945 212.643 115.263 206.163 116.64 203.936C116.897 203.519 118.195 203.178 119.523 203.178C124.475 203.178 127.31 215.364 124.119 222.928C121.623 228.842 117.784 226.32 115.969 217.575Z" fill="black"/>
<path fill-rule="evenodd" clip-rule="evenodd" d="M70.9896 198.827C66.1926 200.483 59.9896 204.657 59.9896 206.229C59.9896 207.64 63.1026 207.367 66.3536 205.672C70.2026 203.664 71.7316 203.791 72.4896 206.178C73.5346 209.47 72.1356 211.902 67.6936 214.516C58.8706 219.708 54.8606 225.199 56.9886 229.176C58.8526 232.659 63.7846 232.765 70.3306 229.465C72.8606 228.189 73.3756 228.218 75.0406 229.724C76.9086 231.414 79.8796 231.241 82.9216 229.265C84.1056 228.496 84.1486 227.653 83.1716 224.391C82.5216 222.221 81.9896 215.911 81.9896 210.369C81.9896 201.089 81.8136 200.168 79.7666 198.735C77.0826 196.854 76.6926 196.858 70.9896 198.827ZM66.8996 225.622C65.3336 224.654 65.9016 221.901 68.1636 219.492C71.7166 215.71 73.2406 216.675 71.8416 221.821C70.9986 224.925 68.6696 226.716 66.8996 225.622Z" fill="black"/>
<path fill-rule="evenodd" clip-rule="evenodd" d="M20.3886 173.758C14.0846 177.077 8.86362 182.155 5.60962 188.134C0.909622 196.771 -1.46238 214.627 0.965625 223.095C3.50862 231.96 10.9866 233.886 18.0596 227.496C23.7256 222.377 26.1696 217.161 26.2246 210.07C26.2776 203.316 24.5946 200.085 20.0416 198.2C17.3526 197.086 16.2076 197.183 11.4636 198.931C8.45362 200.04 5.98962 200.498 5.98962 199.949C5.98962 199.4 6.98362 197.183 8.19762 195.022C10.2806 191.316 14.1526 188.415 23.1076 183.85C26.7256 182.006 29.9896 176.928 29.9896 173.144C29.9896 170.365 26.3956 170.594 20.3886 173.758ZM9.09462 221.05C7.70162 217.052 7.65962 207.662 9.02462 205.112C11.9056 199.73 17.9796 206.066 17.9856 214.46C17.9896 218.965 15.8286 226.178 14.4746 226.178C12.5396 226.178 10.0576 223.812 9.09462 221.05Z" fill="black"/>
<path fill-rule="evenodd" clip-rule="evenodd" d="M99.2046 177.428L99.4896 187.678L104.424 187.99C113.335 188.554 116.99 186.423 116.99 180.663C116.99 176.62 114.104 174.178 109.327 174.178C105.822 174.178 104.208 172.792 106.224 171.512C107.424 170.75 108.279 170.597 112.99 170.303C114.09 170.234 114.99 169.503 114.99 168.678C114.99 167.469 113.431 167.178 106.955 167.178H98.9196L99.2046 177.428ZM105.771 182.359C105.217 181.805 105.083 180.837 105.471 180.208C106.466 178.6 110.49 179.366 110.49 181.164C110.49 182.945 107.192 183.78 105.771 182.359Z" fill="black"/>
<path fill-rule="evenodd" clip-rule="evenodd" d="M213.753 199.743C210.341 201.594 209.753 203.91 209.607 216.069C209.514 223.801 209.848 226.308 211.263 228.469C213.611 232.056 217.536 232.015 222.59 228.349C228.569 224.013 232.121 218.23 232.321 212.507C232.482 207.9 232.36 207.663 229.655 207.353C228.096 207.175 225.013 207.752 222.803 208.636L218.786 210.243L219.486 204.211C220.12 198.749 220.011 198.182 218.338 198.218C217.322 198.24 215.258 198.926 213.753 199.743ZM222.935 221.311C220.878 226.277 218.333 223.233 218.09 215.514C217.996 212.539 218.154 212.394 220.74 213.082C223.966 213.939 224.758 216.909 222.935 221.311Z" fill="black"/>
</svg>
